<?xml version="1.0" encoding="UTF-8"?>
<svg version="1.1" viewBox="0 0 1000 945" width="24" height="24" xmlns="http://www.w3.org/2000/svg">
<path transform="translate(0)" d="m0 0h1e3v945h-1e3z" fill="#FDFDFD"/>
<path transform="translate(151,368)" d="m0 0h7l5 3 4 8 2 7 3 21 7 14 1 5-1 18v11l3 5 8 7 3 5 4 13 1 3 5 2 8 6 8 13 15 14 7 6 8 6 9 12 10 7 12 12 14 9 9 10 8 11 5 4 9 11 7 7 8 7 7 13 8 10 5 11 4 8 9 8 4 8 2 9 2 13 5 22 1 14v21l-4 20-3 16-3 11-4 5-17 11h-9l-11-7-16-6-12-12-16-8-8-8-16-8-7-6-7-9-10-8-12-16-8-8-11-17-9-11-3-9-3-14-7-8-8-10-6-3h-7l-5 5v12l3 16 2 12 11 24 6 17 6 9 5 6 6 17 5 5 6 5 6 9 5 4 8 7 6 9 1 3 4 2 8 6 9 8 8 4 5 5 5 6 11 7 13 8 16 6 4 5-1 7-4 5-9 4-13 5-11 7-27 8-5 1h-30l-20-2-23-6-12-6-19-10-11-12-12-7-8-8-8-7-12-14-7-6-9-12-7-8-7-13-10-10-6-12-7-16-7-15-5-18-10-16-3-9-2-19-1-16v-45l3-37 4-13 8-13 3-11 3-16 4-9 8-16 5-15 6-9 6-7 8-16 12-18 9-17 8-7 12-16 8-9 7-11 12-11 5-4z" fill="#89C34B"/>
<path transform="translate(500,33)" d="m0 0h31l14 2 27 1 13 2 11 6 9 6 15 4 14 3 9 4 11 9 12 8 10 10 11 7 19 19 8 10 11 10 9 12 8 8 8 17 11 11 8 18 7 9 2 5 2 24 3 9 9 11 3 9 3 16 6 12 7 12v9l-4 4-2 1-10-1-17-6-16-8-14-2h-71l-16 3-19 7-20 5-9 3-20 3-8 4-6 7-5 3-4 1-21 1-10 4-11 5-3 1-44 1-11 1h-34l-33-2-10-4-9-4-16-5-6-5-6-7-15-8-7-8-8-15-6-9-4-11-1-8 3-5 17-8 15-10 14-6 9-8 5-5 4-2 22-4 24-4 15-8 13-3 64-1 16-2 17-1 5-3 1-1v-9l-5-4-20-8-7-2-24-3-18-3-20-1h-43l-6 2h-9l-6-3h-5l-11 6-17 6-8 6-16 8-12 12-16 7-10 8-11 4h-8l-6-5-4-8-1-4v-23l4-21 10-25 6-9 8-7 9-17 5-6 12-9 10-8 9-8 13-7 11-7 14-5 19-3 8-4 8-7 6-2 8-1 45-1z" fill="#89C34B"/>
<path transform="translate(775,491)" d="m0 0h60l6 3 2 3 1 9-3 14-2 8-1 10v9l1 16-2 41-3 16-8 20-5 20-3 16-6 10-11 16-9 12-10 12-3 7v9l2 3 3 1h10l7-3 8-6 10-9 8-10 8-7 7-11 7-7 5-4 5-12 4-10 8-13 5-20 3-15 10-19 3-12 2-20 2-30-1-13 2-8 5-4h10l10 5 9 9 8 7 7 11 9 7 4 5 6 20 4 9 5 19 2 18v42l-2 18-7 28-6 18-3 17-4 8-10 10-7 18-8 10-8 19-16 15-6 8-9 9-7 8-14 11-11 6-5 5-9 10-8 3-14 2-12 5-16 8-15 3-21 3-12 6-6 4-10 3-13 1h-74l-30 5h-18l-14-2-13-4-13-6-19-5-4-5v-8l5-6 8-7 8-9 11-8 16-15 9-15 6-7 5-12 4-10 10-13 3-8 5-29 8-34 8-51 4-10 9-14 8-30 8-15 7-20 7-10 8-9 8-13 9-11 6-9 18-12 8-6 18-8 11-11z" fill="#89C34A"/>
<path transform="translate(148,359)" d="m0 0h14l8 4 5 8 7 18 3 20 2 9 2 23 4 7 9 11 6 16 7 8 6 8 7 11 11 8 10 10 8 6 9 11 15 10 8 8 11 7 8 7 8 11 8 7 9 12 6 7 5 5 6 7 7 10 8 11 8 16 5 4 6 10 8 19 7 11 3 14 1 8 1 23v16l-2 25-3 9-9 14-8 15-3 5v6l9 10 11 7 9 2 14 2 16 5 10 5 6 7 2 5v14l-4 11-13 19-5 4-3 1h-8l-6-3-8-6-9-3-21-4-10-4-10-8-17-8h-7l-13 9-11 7-12 6-34 9-7 1h-11l-25-3-17-1-28-5-9-4-8-8-17-9-7-9-8-5-10-5-11-11-9-11-13-13-9-11-5-8-7-14-8-4-4-5-8-16-6-9-5-10-2-13-2-12-3-6-7-5-4-8-2-9-2-30-4-20v-22l4-20 1-10 1-24 2-10 4-8 5-5 4-8 1-3 2-20 4-12 5-7h2l2-5 7-19 5-8 7-6 4-8 5-12 12-18 5-12 7-6 6-3 6-10 9-10 7-11 5-6 8-7 5-6zm3 9-6 4-14 14-8 11-7 8-9 12-5 5-7 8-10 19-8 11-8 16-12 16-4 11-5 13-7 12-4 16-3 14-4 8-6 10-3 11-3 37v45l2 28 2 10 4 9 8 13 6 21 12 25 5 12 9 10 6 8 6 11 7 7 9 12 10 9 6 8 7 7 8 7 5 4 10 6 10 11 16 8 10 6 13 4 15 4 20 2h30l19-5 15-5 13-8 15-5 5-4 3-6-1-6-4-4-13-4-12-7-11-7-5-5-5-6-8-5-7-4-8-8-7-5h-2l-2-4-6-9-14-12-6-9-7-5-4-8-4-12-10-13-6-16-7-16-5-11-4-24-1-4v-12l5-5h7l6 3 9 11 6 7 4 18 3 6 11 14 9 14 9 9 10 14 10 8 11 13 19 10 9 9 16 8 11 11 18 7 9 6h9l18-12 4-7 5-24 4-20v-21l-1-14-5-22-4-22-4-8-9-8-11-22-8-10-6-11-16-15-9-11-5-5-9-11-7-8-14-9-13-13-10-7-9-12-11-8-11-11-7-6-8-13-10-7h-2l-2-5-4-13-8-9-4-4-1-2v-11l1-18-3-9-5-10-3-21-4-12-5-5-2-1z" fill="#B0D686"/>
<path transform="translate(505,22)" d="m0 0h22l22 6 5 1 29 1 15 3 14 9 11 3 14 3 13 5 7 8 5 5 10 5 10 11 13 8 16 16 7 11 8 7 6 5 6 8 10 10 4 8 5 11 2 1v2l4 2 6 10 4 10 5 5 7 6 4 13 5 14 7 15 6 23 4 7v2h2l5 8 6 21 1 12-2 8-5 7-6 3-9 1-15-3-20-5-11-7-6-4-8-2-11-1h-45l-10 2-8 5-10 6-13 3-24 4-22 6-19 9-25 3-8 5-7 6-9 3-34 1-39 2-30-1-34-2-8-3-8-9-8-4-10-2-8-4-10-10-14-8-11-17-7-6-3-7-3-13-4-6-1-1h-7l-4 4-6 9-10 8-11 9-10 8-7 7-8 6-2 1h-11l-6-3-10-10-6-5-5-8-2-6v-15l4-6 9-6 7-6 6-8 10-6 9-6 9-7 12-4 6-4 1-1v-12l-2-12v-17l3-27 3-10 6-8 8-15 9-10 6-8 5-12 5-6 14-10 10-9 15-10 11-8 11-4 13-5 9-3 9-2 14-7 10-2 39-1 17-2zm-5 11-19 2-45 1-11 2-7 4-7 6-10 3-14 2-16 6-14 9-11 6-9 9-15 11-5 4-7 10-7 13-9 8-6 12-8 20-4 21v23l4 10 5 6 2 1h8l13-5 10-8 14-6 13-13 16-8 7-5 20-7 8-5h5l6 3h9l6-2h43l20 1 31 5 11 1 15 5 14 6 3 3v9l-3 3-3 1-25 2-8 1-64 1-15 4-13 7-24 4-22 4-8 5-7 8-22 11-14 9-14 7-2 4 2 11 5 12 7 10 7 13 8 7 13 7 8 9 8 4 16 5 10 5 16 2 21 1h34l11-1 44-1 12-5 8-4 4-1 21-1 7-3 5-4 4-5 7-3 20-3 20-6 15-4 17-6 12-2h71l14 2 16 8 21 7h6l4-2 2-3v-9l-8-14-5-10-4-20-4-8-7-8-3-9-2-24-4-8-6-8-7-16-11-11-8-17-10-10-9-12-12-11-8-11-8-7-9-9-11-7-10-10-11-7-12-10-11-4-24-5-10-6-8-5-8-3-9-1-27-1-14-2z" fill="#B0D686"/>
<path transform="translate(858,385)" d="m0 0h7l6 3 15 16 3 5 2 10 2 42v20l3 7 9 9 10 6 13 4 10 8v2l3 1 7 9 7 10 11 9 8 15 7 10 4 18 4 42v26l-3 35-3 23-3 10-8 17-5 16-4 6-7 7-6 12-3 10-6 9-7 11-7 10-10 10-10 13-9 10-15 15-18 8-12 13-20 8-13 8-8 3-17 4-18 3-13 4-12 5-12 3-23 2-61 1h-66l-20-2-14-5-10-5-15-4-6-5-2-4v-15l3-5 11-7 9-12 13-11 8-7 6-4 11-20 7-9 4-11 5-10 8-10 2-5 2-20 2-19 4-26 7-22 4-10 3-24 4-8 7-10 4-8 5-28 9-15 9-21 5-7 8-5 9-16 11-14 5-6 12-8 11-9 17-6 8-7 6-6 6-2 43-1 18-1 4-1 1-10-5-8-4-6-3-15-6-27 1-11 4-6 7-4 16-4zm-83 106-8 3-11 11-20 9-10 8-13 8-6 8-8 11-4 5-7 11-9 10-6 11-7 19-8 15-6 25-5 10-7 11-3 12-8 50-7 29-5 29-4 10-9 11-8 20-6 8-7 11-6 8-15 14-11 8-12 13-5 4-2 3v8l4 5 22 6 15 7 13 3 9 1h18l30-5h74l13-1 12-4 11-7 9-3 23-3 12-3 19-10 11-3 13-2 6-4 7-8 5-5 14-8 13-11 14-15 9-11 13-12 5-12 5-10 6-7 7-18 10-10 4-8 4-20 7-22 5-21 2-18v-42l-2-18-6-22-5-11-3-13-4-6-8-7-4-4-7-10-15-14-10-5h-10l-5 4-2 8 1 17-2 26-2 20-3 12-10 19-7 32-5 10-6 10-6 16-4 5-8 7-7 10-7 8-5 5-9 10-8 7-9 6-4 1h-10l-3-1-2-3v-9l4-8 11-13 7-10 11-16 6-10 5-24 4-15 7-17 3-16 2-47-1-10v-9l2-15 3-10 1-8-1-8-5-5-3-1z" fill="#B0D686"/>
<path transform="translate(776,497)" d="m0 0h52l5 5-1 7-4 5-14 7-9 4-5 8-6 9-11 8-5 11-5 10-8 10-8 17-9 11-5 12-4 16-7 19-4 11-2 9-3 27-6 14-5 10-3 12-3 26-6 31-4 15-5 12-4 21-4 6-10 8-8 16-10 11-5 5-8 9-7 10-9 6-10 4-4 1h-18l-12-3-11-6-7-5-19-3-3-5 4-7 10-10 14-8 10-9 6-8 8-12 8-10 6-18 7-9 6-8 3-11 5-21 6-15 3-12 2-19 2-31 3-15 4-6 8-13 6-25 6-12 4-5 2-4 3-16 4-9 5-5 6-7 8-13 8-10 6-11 5-5 6-3 7-3 8-7 8-5 12-5 5-5 6-7z" fill="#039802"/>
<path transform="translate(152,379)" d="m0 0 4 1 3 5 2 23 3 7 6 8 1 2v9l-6 9-9 16-8 10-8 17-8 8h-2l-2 5-5 15-4 15-8 15-3 10-3 24-4 11-7 12-3 13-1 19v23l1 24 4 13 9 18 3 17 3 14 8 14 5 9 4 12 7 9 5 6 9 15 10 14 6 11 10 7 6 8 6 9 11 8 9 10 22 12 17 8 2 2-1 4-6 3h-26l-12-3-14-7-11-4-17-4-8-6-6-8-12-7-5-5-4-5-9-6-9-12-8-6-7-10-5-5-7-9-6-12-9-10-3-4-8-26-4-6-4-5-3-7-4-15-3-6-7-9-3-12-1-7v-82l4-20 6-10 5-10 4-20 8-16 5-8 3-19 4-8 8-6 3-4 7-17 10-13 9-18 8-8 9-12 7-7 6-9 5-10 6-5z" fill="#039802"/>
<path transform="translate(503,41)" d="m0 0h26l48 2 8 4 4 3v2l12 6 15 3 16 6 10 5 17 11 10 10 13 8 9 10 8 6 7 10 5 5 10 9 8 12 7 6 4 8 3 10 4 4 8 5 3 4 1 5-2 5-5 1-6-4-5-13-5-4-10-5-9-11-7-3-9-3-9-12-5-3-13-4-13-8-21-5-11-3-26-2-13-4-15-6-9-2h-32l-20 3-15 4-14 5-32 2-37 6-8 3-11 8-14 7-10 11-18 7-10 9-15 10-7 9-4 3-17 4-5 2h-7l-3-4v-16l6-23 2-16 4-9 10-7 9-17 13-13 11-7 8-10 6-3 12-4 11-8 8-4 24-3 6-3 8-9 7-3z" fill="#039802"/>
<path transform="translate(152,371)" d="m0 0 7 1 4 5 3 12 2 17 5 10 4 7v15l-3 10-7 18-6 8-8 9-7 16-8 11-4 13-4 19-7 13-4 6-3 13-4 26-5 18-2 18v21l2 18 6 22 4 24 4 11 9 14 4 16 4 9 7 8 9 15 5 5 6 7 7 15 12 12 8 13 10 7 2 1v2l4 2 8 7 12 8v2l4 2 8 5 12 3 15 1 8 3 3 4-1 4-4 4-10 4-10 3-7 1h-14l-18-1-15-3-21-7-17-8-10-5-8-10-16-10-5-6-9-7-9-11-12-12-7-9-7-8-7-13-9-9-7-14-6-15-8-16-5-17-7-12-5-10-2-10-1-10-1-22v-34l2-33 3-16 11-22 6-25 11-22 4-15 6-9 7-8 9-19 10-13 8-16 7-8 8-9 7-9 8-10 7-10 7-7 9-7zm0 8-13 8-4 5-7 13-11 12-10 13-7 7-6 14-12 16-8 19-8 7-4 4-3 9-2 15-6 10-7 14-4 20-6 12-5 8-4 20v82l3 16 3 6 7 9 4 13 3 10 4 6 4 5 10 30 9 9 6 10 4 8 5 6 5 5 7 10 9 7 8 11 9 6 6 8 10 6 6 4 8 10 5 3 21 5 14 6 10 5 9 2h26l6-3 1-4-8-5-21-10-13-8-10-11-10-7-9-14-6-5-7-5-8-15-9-12-9-15-8-9-4-8-4-11-11-19-3-14-3-17-10-20-3-11-1-24v-23l1-19 3-13 8-14 3-9 3-24 3-10 8-15 7-25 4-8v-2l4-2 7-8 8-16 9-12 7-13 6-9v-9l-4-6-5-7-2-13-1-14-3-5z" fill="#48B02E"/>
<path transform="translate(508,35)" d="m0 0h15l20 2 28 1 12 2 8 4 10 7 7 3 26 6 10 5 10 8 10 7 8 8 15 10 9 10 8 7 8 11 12 11 8 10 8 9 6 12 4 7 9 8 4 8 4 12 6 9 1 2v11l-4 3h-6l-5-6-3-6-5-4-9-5-8-15-8-5-6-3-9-9-16-8-6-7-4-6-5-3-10-2h-9l-15-4-9-5-6-4-7-2-33-2-16-3-20-6-13 1-25 5-24 3-31 1-12 3-14 7-7 3-16 3-16 2-8 4-9 10-17 8-8 6-14 8-7 6-5 6-22 10-10 6-9 1-5-4-4-9v-20l5-23 9-25 4-6 8-7 6-10 5-8 6-7 15-11 9-9 8-5 12-6 11-7 13-4 16-2 7-3 11-9 5-2 8-1 47-1zm-5 6-71 2-8 4-8 9-5 2-24 3-10 5-11 8-13 4-6 5-6 8-11 7-13 13-8 16-10 7-4 9-2 16-6 23v16l3 4h7l16-5 7-2 6-5 6-8 12-7 8-8 8-4 13-5 11-12 16-8 10-7 6-2 25-4 12-2 32-2 24-8 16-3 9-1h32l15 4 14 6 8 2 26 2 19 5 13 3 15 9 14 4 6 7 5 7 9 3 7 3 9 11 13 7 3 5 4 10 6 4 5-1 2-6-3-7-5-4-7-4-3-8-3-9-6-7-5-5-8-11-8-7-5-5-8-11-10-8-7-8-13-8-10-10-23-14-15-6-14-3-10-3-5-4h-2v-2l-9-6-3-1-48-2z" fill="#48B02E"/>
<path transform="translate(775,493)" d="m0 0h56l6 3 2 3v12l-4 8-9 10-6 4-10 5-7 11-7 8h-2l-6 12-4 9-7 8-6 9-6 15-8 13-3 8-3 16-4 17-10 20-3 13-3 24-5 17-5 14-3 14-4 36-2 13-5 10-7 11-5 17-9 10-6 7-6 15-13 12-2 10-2 5-7 3-27 7-11 2h-16l-14-2-14-5-9-5-18-4-5-3-1-2v-6l7-8 12-12 13-10 13-12 11-17 7-9 7-18 4-6 7-9 4-13 4-22 7-25 4-27 5-35 4-10 7-10 4-11 5-20 10-20 6-18 6-9 7-8 10-15 9-12 6-9 10-6 9-6 10-7 13-5 6-5 6-7zm1 4-6 4-7 9-9 4-12 6-7 7-5 3-9 3-5 5-6 10-8 11-7 10-6 9-6 5-4 8-3 12-2 9-4 6-5 8-4 12-4 18-8 13-4 6-3 15-3 43-3 15-5 14-5 16-4 18-3 6-9 11-4 9-4 12-11 14-7 11-9 10-8 6-11 6-10 10-4 7 3 5 19 3 14 9 11 4 5 1h18l12-4 10-6 4-5 8-11 8-7 9-11 4-5 7-14 9-7 4-6 5-24 5-12 7-31 3-19 3-24 4-12 8-16 2-9 2-21 4-16 6-14 4-11 4-17 6-12 8-10 8-16 10-14 7-16 11-8 6-9 5-8 9-4 14-7 4-5 1-7-5-5z" fill="#48B02E"/>
<path transform="translate(148,359)" d="m0 0h14l8 4 5 8 7 18 3 20 2 9 2 23 4 7 9 11 6 16 7 8 6 8 7 11 11 8 10 10 8 6 9 11 15 10 8 8 11 7 8 7 8 11 8 7 9 12 6 7 5 5 6 7 7 10 8 11 8 16 5 4 6 10 8 19 7 11 3 14 1 8 1 23v16l-2 25-3 9-9 14-8 15-3 5v6l9 10 11 7 9 2 14 2 16 5 10 5 6 7 2 5v14l-4 11-13 19-5 4-3 1h-8l-6-3-8-6-9-3-21-4-10-4-10-8-17-8h-7l-13 9-11 7-12 6-34 9-7 1h-11l-25-3-17-1-28-5-9-4-8-8-17-9-7-9-8-5-10-5-11-11-9-11-13-13-9-11-5-8-7-14-8-4-4-5-8-16-6-9-5-10-2-13-2-12-3-6-7-5-4-8-2-9-2-30-4-20v-22l4-20 1-10 1-24 2-10 4-8 5-5 4-8 1-3 2-20 4-12 5-7h2l2-5 7-19 5-8 7-6 4-8 5-12 12-18 5-12 7-6 6-3 6-10 9-10 7-11 5-6 8-7 5-6zm3 4-6 3-19 19-7 11-7 7-8 12-5 4-6 5-11 21-9 13-6 14-11 13-5 11-5 13-9 16-3 11-2 15-4 10-7 10-3 8-2 18-2 25-1 8v33l2 18 2 24 4 13 9 12 4 13 4 16 15 29 4 7 6 5 5 5 8 15 9 10 7 9 12 12 7 8 11 11 16 9 8 10 18 10 9 7 10 3 25 5 29 2h21l26-5 18-6 15-9 9-6 7-7 3-2 7 1 10 7 17 8 12 6 26 7 10 6 6 3 7-1 5-4 12-23v-11l-4-5-9-2-8 2-5-1-5-8-4-3-9-2-14-2-7-3-8-10-5-5-1-2v-7l5-8 7-8 5-10 9-19 2-8 1-10v-41l-3-21-5-11-5-12-5-13-8-10-6-9-6-12-8-10-8-12-12-12-9-11-9-10-11-14-9-7-10-7-10-9-11-8-13-14-9-7-5-6-12-9-9-14-10-10-8-20-6-7h-2l-2-4-2-8-1-17-4-13-3-11-3-16-6-15-6-5-3-1z" fill="#D9EBC5"/>
<path transform="translate(858,385)" d="m0 0h7l6 3 15 16 3 5 2 10 2 42v20l3 7 9 9 10 6 13 4 10 8v2l3 1 7 9 7 10 11 9 8 15 7 10 4 18 4 42v26l-3 35-3 23-3 10-8 17-5 16-4 6-7 7-6 12-3 10-6 9-7 11-7 10-10 10-10 13-9 10-15 15-18 8-12 13-20 8-13 8-8 3-17 4-18 3-13 4-12 5-12 3-23 2-61 1h-66l-20-2-14-5-10-5-15-4-6-5-2-4v-15l3-5 11-7 9-12 13-11 8-7 6-4 11-20 7-9 4-11 5-10 8-10 2-5 2-20 2-19 4-26 7-22 4-10 3-24 4-8 7-10 4-8 5-28 9-15 9-21 5-7 8-5 9-16 11-14 5-6 12-8 11-9 17-6 8-7 6-6 6-2 43-1 18-1 4-1 1-10-5-8-4-6-3-15-6-27 1-11 4-6 7-4 16-4zm-2 13-24 3-6 4-3 5v7l6 17 4 18 3 13 2 6v9l-1 4-5 2-6 1-55 1-8 4-9 9-8 4-12 5-6 4-7 6-11 7-10 13-8 11-7 11-9 9-8 16-7 16-6 12-3 14-4 14-12 20-5 29-6 23-7 34-4 33-5 12-7 8-4 8-5 13-11 16-6 10-9 8-5 5-14 11-9 11-10 8-2 4v9l3 5 4 3 20 6 16 7 16 3 25 1 28-2h47l43-1 15-3 22-9 34-6 14-5 15-8 20-7 5-5 6-7 20-11 6-5v-2h2l7-8 8-8 11-14 12-12 5-8 6-11 6-9 7-18 9-10 4-5 7-23 6-14 3-15 3-22 1-14v-49l-2-20-4-21-11-23-6-9-9-7-10-14-13-12-10-5-20-8-8-4-4-4-2-6-1-7-1-48-2-13-4-5-5-5-6-7-3-2z" fill="#D9EBC5"/>
<path transform="translate(505,22)" d="m0 0h22l22 6 5 1 29 1 15 3 14 9 11 3 14 3 13 5 7 8 5 5 10 5 10 11 13 8 16 16 7 11 8 7 6 5 6 8 10 10 4 8 5 11 2 1v2l4 2 6 10 4 10 5 5 7 6 4 13 5 14 7 15 6 23 4 7v2h2l5 8 6 21 1 12-2 8-5 7-6 3-9 1-15-3-20-5-11-7-6-4-8-2-11-1h-45l-10 2-8 5-10 6-13 3-24 4-22 6-19 9-25 3-8 5-7 6-9 3-34 1-39 2-30-1-34-2-8-3-8-9-8-4-10-2-8-4-10-10-14-8-11-17-7-6-3-7-3-13-4-6-1-1h-7l-4 4-6 9-10 8-11 9-10 8-7 7-8 6-2 1h-11l-6-3-10-10-6-5-5-8-2-6v-15l4-6 9-6 7-6 6-8 10-6 9-6 9-7 12-4 6-4 1-1v-12l-2-12v-17l3-27 3-10 6-8 8-15 9-10 6-8 5-12 5-6 14-10 10-9 15-10 11-8 11-4 13-5 9-3 9-2 14-7 10-2 39-1 17-2zm3 5-26 4-10 1-42 1-9 2-10 6-7 4-19 4-19 7-24 16-14 12-14 10-6 9-7 13-10 10-15 28-3 12-2 15v26l3 16-1 8-5 4-15 6-11 9-16 8-8 9-5 5-9 7-3 5v9l4 8 7 6 11 7 3 2h6l11-9 8-6 5-5 6-7 14-6 6-8 3-5v-2l5-2h7l6 4 5 8 6 18 10 13 7 11 7 6 10 6 10 9 8 4 12 4 6 4 8 6 5 2 7 1 27 1h43l48-1 12-2 7-4 8-6 5-2 21-2 10-4 11-7 9-3 27-5 21-4 19-10 7-2h66l11 3 9 5 8 5 26 6h9l6-3 4-5 2-7-1-10-5-16-9-15-4-13-5-14-8-15-6-24-4-6-6-5-8-17-9-10-4-7-6-12-7-8-5-5-8-10-9-7-10-14-13-12-7-6-9-6-6-7-14-9-10-10-9-4-24-5-9-4-10-7-9-3-6-1-29-1-20-4-9-1z" fill="#D9EBC5"/>
<path transform="translate(856,377)" d="m0 0h12l7 3 10 10 7 8 3 5 2 12 2 32 1 7v25l4 8 7 9 8 5 12 2 9 6 8 8 8 15 7 6 6 4 8 15v2l4 1 5 6 3 11 2 16 2 28 2 14v19l-3 24-2 27-3 20-8 16-4 5-5 17-9 10-6 8-4 17-9 12-11 17-8 9-6 5-7 11-13 12-8 10-3 3-16 4-6 5-7 9-8 3-9 3-5 3-8 8-13 4-34 7-22 9-13 2-30 2-53 2h-19l-11-1-52-2-15-1-11-3-12-7-14-4-6-5-2-5v-19l3-5 5-3 6-3h2l2-4 5-9 8-7 6-5 5-6 9-4 4-7 4-12 9-10 3-4 4-13 6-9 6-8 1-4 3-43 2-20 7-20 5-8 2-3 1-7 1-20 4-7 10-14 3-7 2-25 3-6 5-5 8-16 5-13 7-6 6-2 8-16 9-12 7-8 12-8 8-8 9-3 11-3 6-5 5-7 7-3 44-1h18l4-2 1-7-4-6-14-8-1-4 2-4-1-14-3-22v-10l3-9 7-6 19-6 10-5zm2 8-17 7-15 4-6 4-3 5-1 11 6 27 3 15 7 10 2 4v6l-1 4-4 1-28 1-33 1-7 3-11 11-10 4-11 4-10 9-11 7-6 7-12 16-7 13-10 7-6 12-8 18-7 11-5 28-5 10-8 11-2 5-3 24-5 13-6 19-5 32-2 26-2 10-8 11-5 8-4 12-4 6-7 10-8 15-10 7-8 8-9 7-9 12-12 8-2 4v15l4 6 7 4 14 4 15 7 13 3 14 1h81l46-1 23-2 15-4 17-7 16-3 20-4 10-3 14-8 10-5 11-4 12-13 11-5 8-4 21-21 10-13 9-10 7-8 9-15 6-8 3-8 4-11 6-8 7-8 3-8 5-15 7-14 3-14 4-39 1-13v-26l-4-42-4-18-10-15-5-10-13-11-7-11-6-7h-2v-2l-10-8-15-5-9-6-8-8-3-7v-21l-2-41-3-12-7-8-11-12-5-2z" fill="#F0F8EA"/>
<path transform="translate(147,356)" d="m0 0h17l8 3 6 7 8 17 3 24 2 29 5 9 9 9 6 17 9 8 4 7 3 8 5 6 9 5 11 11 9 7 7 9 5 4 11 6 10 11 13 7 5 6 6 9 8 6 12 16 10 9 7 11 11 14 7 16v2l5 2 6 5 4 8 5 16 4 6 5 4 4 11 2 17 1 23v26l-3 26-3 7-5 5-6 9-4 9v8l4 5 5 4v2l4 2 7 3 25 2 14 4 9 6 5 10 1 4v17l-2 11-5 10-3 4h-2l-2 5-7 9-6 3-5 1h-7l-8-3-11-9-22-4-15-4-6-5-5-5-8-5-3-1h-10l-14 9-11 8-28 7-19 6-14 1-20-5-25-2-22-4-13-2-5-4-6-8-4-3-10-3-5-5-4-7-7-4-13-4-9-11-12-13-9-9-8-10-6-5-3-10-4-11-9-3-5-5-5-13-5-4-7-10-4-10-1-23-3-6-8-4-4-5-2-10-2-34-5-20-2-10v-12l3-11 2-9 2-5 1-9v-20l1-14 3-9 5-4 4-2 4-10 1-17 3-16 4-6 7-5 5-16 3-9 7-8 6-3 8-23 7-8 4-6 4-11 7-6 8-3 7-13 6-5 5-8 3-6 19-19zm1 3-8 5-9 10-5 4-10 15-9 10-6 10-8 4-5 6-5 12-10 14-5 11-4 9-5 5-6 7-5 12-5 13-1 3-4 2-5 10-3 14-1 13-4 10-5 5-4 6-2 6-1 7-1 24-2 15-3 15v22l4 20 2 30 3 11 4 7 6 4 4 10 2 18 4 9 6 11 4 5 8 16 5 4 6 3 9 19 10 11 7 8 9 9 9 11 9 9 17 9 7 8 4 4 14 7 9 9 8 3 28 5 28 2 14 2h11l14-3 30-8 9-5 17-11 7-5h7l17 8 12 9 12 4 20 4 9 4 8 6 3 1h8l7-4 8-11 8-13 2-7v-14l-4-8-7-6-12-5-16-4-14-2-8-3-10-8-6-7v-6l10-18 9-15 3-6 2-12 1-17v-16l-1-23-3-19-4-8-6-10-6-15-6-10-5-4-8-16-9-12-10-14-5-6-6-5-13-17-8-7-7-10-7-6-11-7-9-9-15-10-8-10-11-9-9-9-9-6-11-17-8-8-4-9-4-11-9-10-3-6-2-23-4-21-2-11-8-19-4-5-7-3z" fill="#F0F8EA"/>
<path transform="translate(511,15)" d="m0 0h8l10 2 9 4 12 5 6 1 30 1 15 2 9 6 7 4 18 4 16 5 6 7 4 6 2 2 10 3 6 7 5 6 8 4 7 4 13 13 8 14 6 5 5 3 4 5 7 9 8 6 4 8 3 9 10 9 3 6 4 14 2 3 9 3 4 6 4 15 6 10 6 12 2 13 3 13 1 4 5 2 5 5 4 12 5 27v8l-4 11-8 7-5 2h-13l-23-7-12-2-8-5-10-8-6-2h-59l-7 4-6 7-9 4-23 3-22 6-13 5-11 4-11 2-18 1-7 3-8 9-5 3-15 2-46 1-21 2h-15l-24-2-30-2-7-3-7-9v-2l-5-2-18-3-6-3-4-6-1-3h-2v-2l-5-2-9-4-6-9-4-7-10-5-4-7-1-14-2-5-4-1-4 4-5 7-6 5-7 8-8 6-7 4-9 10-5 5-9 4-11 1-10-4-9-9-2-1v-2h-2v-2l-4-2-6-8-3-9-1-7v-15l3-6 5-4 12-4 4-5 6-9 15-8 9-10 18-4 4-3 1-7-2-12v-25l3-27 3-10 7-6 8-16 9-10 6-7 4-12 5-6 14-9 10-10 11-6 14-12 10-3 9-2 14-8 16-5 9-3 9-1 38-1 17-2 15-5 11-4zm-6 7-28 6-11 1-39 1-10 2-17 8-13 3-11 5-13 4-9 6-14 10-8 6-9 8-13 9-6 9-4 10-9 10-7 9-7 14-6 8-3 16-2 19v17l2 12v12l-5 4-11 4-9 5-8 7-13 7-12 14-10 6-4 5-1 2v15l4 10 7 8 8 7 7 6 3 1h11l6-4 12-11 14-11 8-7 8-6 7-10 3-3h7l4 5 6 20 5 6 5 5 9 14 15 9 9 9 8 4 12 3 8 5 6 7 8 3 34 2 30 1 39-2 34-1 9-3 8-7 7-4 25-3 22-10 24-6 29-5 12-6 5-4 7-3 7-1h45l16 2 8 4 10 7 13 4 17 4 11 1 9-3 5-5 3-5 1-11-3-15-5-15-4-6h-2l-2-5-4-11-4-16-10-22-5-18-6-7-6-4-4-9-5-10-4-5h-2v-2l-3-3-7-15-7-8-7-7-6-8-10-8-7-10-7-8-11-11-12-7-10-11-12-6-9-11-8-4-13-4-16-3-10-6-6-4-15-3-29-1-16-4-11-3z" fill="#F0F8EA"/>
<path transform="translate(148,361)" d="m0 0h14l6 4 4 5 6 16 5 25 3 12 1 19 3 7 9 10 4 11 5 10 8 8 9 14 13 11 8 8 9 7 8 10 14 10 10 9 15 10 7 8 7 9 8 8 10 13 11 11 11 16 7 9 7 14 10 12 5 11 5 13 6 11 3 12 2 28v18l-2 22-3 10-9 16-5 10-7 9-1 2v8l4 4v2l4 2 5 6 8 4 22 4 14 6 12 4 5 3 4 7v11l-3 8-8 13-4 6-4 4-3 1h-7l-10-6-10-5-23-5-12-6-8-5-15-8-4-2-7 1-11 9-12 7-10 6-17 5-19 5-6 1h-18l-23-2-18-2-25-5-7-4-8-7-15-8-8-10-16-9-10-9-9-10-7-8-9-9-9-11-6-10-6-11-9-6-4-6-8-16-9-16-3-17-4-13-8-8-4-10-2-13-2-26-2-13v-28l3-19 2-32 3-11 9-12 3-8 3-22 5-12 7-10 7-19 7-10 3-3h2l2-5 7-16 11-16 8-16 11-8 8-12 9-10 7-11 12-11 4-5zm3 2-6 3-19 19-7 11-7 7-8 12-5 4-6 5-11 21-9 13-6 14-11 13-5 11-5 13-9 16-3 11-2 15-4 10-7 10-3 8-2 18-2 25-1 8v33l2 18 2 24 4 13 9 12 4 13 4 16 15 29 4 7 6 5 5 5 8 15 9 10 7 9 12 12 7 8 11 11 16 9 8 10 18 10 9 7 10 3 25 5 29 2h21l26-5 18-6 15-9 9-6 7-7 3-2 7 1 10 7 17 8 12 6 26 7 10 6 6 3 7-1 5-4 12-23v-11l-4-5-9-2-8 2-5-1-5-8-4-3-9-2-14-2-7-3-8-10-5-5-1-2v-7l5-8 7-8 5-10 9-19 2-8 1-10v-41l-3-21-5-11-5-12-5-13-8-10-6-9-6-12-8-10-8-12-12-12-9-11-9-10-11-14-9-7-10-7-10-9-11-8-13-14-9-7-5-6-12-9-9-14-10-10-8-20-6-7h-2l-2-4-2-8-1-17-4-13-3-11-3-16-6-15-6-5-3-1z" fill="#C8E5B7"/>
<path transform="translate(511,24)" d="m0 0h9l13 2 18 4 27 1 16 3 10 6 6 4 11 3 15 3 11 4 7 6 6 7 11 6 8 9 15 10 16 16 7 10 14 13 7 9 9 9 8 17 1 3 3 1 7 9 6 14 5 5 5 4 3 6 5 20 9 20 6 21 5 9 6 10 5 16 1 12-3 9-4 5-5 2h-13l-25-6-8-4-8-6-10-3-11-1h-51l-9 2-9 5-11 6-38 7-17 4-16 9-12 3-18 2-8 5-8 6-6 2-7 1-49 1-27 1-47-2-10-2-9-7-6-5-16-5-6-4-4-3v-2l-4-2-14-9-6-7-7-11-7-8-3-7-4-14-5-6-2-1h-8l-3 1-2 5-7 10-12 7-5 5-3 1v2l-12 9-3 3h-2l-2 4-8 5-9-1-20-18-4-8-1-4v-7l3-7 5-4 9-6 7-9 6-5 13-7 10-8 15-6 5-5v-9l-3-15v-19l3-25 4-11 7-11 7-13 10-10 8-16 7-8 16-12 10-9 24-16 19-7 10-3 12-3 12-7 6-2 9-1 40-1 21-3 9-2zm-3 3-26 4-10 1-42 1-9 2-10 6-7 4-19 4-19 7-24 16-14 12-14 10-6 9-7 13-10 10-15 28-3 12-2 15v26l3 16-1 8-5 4-15 6-11 9-16 8-8 9-5 5-9 7-3 5v9l4 8 7 6 11 7 3 2h6l11-9 8-6 5-5 6-7 14-6 6-8 3-5v-2l5-2h7l6 4 5 8 6 18 10 13 7 11 7 6 10 6 10 9 8 4 12 4 6 4 8 6 5 2 7 1 27 1h43l48-1 12-2 7-4 8-6 5-2 21-2 10-4 11-7 9-3 27-5 21-4 19-10 7-2h66l11 3 9 5 8 5 26 6h9l6-3 4-5 2-7-1-10-5-16-9-15-4-13-5-14-8-15-6-24-4-6-6-5-8-17-9-10-4-7-6-12-7-8-5-5-8-10-9-7-10-14-13-12-7-6-9-6-6-7-14-9-10-10-9-4-24-5-9-4-10-7-9-3-6-1-29-1-20-4-9-1z" fill="#C8E5B7"/>
<path transform="translate(857,392)" d="m0 0 9 1 9 8v2l4 2 6 9 1 5 1 15 1 48 3 8 8 7 10 6 18 7 8 7 11 11 6 9v2l4 2 9 8 10 19 4 8 3 14 3 28 1 18v19l-2 27-4 31-4 13-7 16-5 16-7 8-5 6-5 12-4 10-9 13-5 9-9 10-10 11-7 9-7 7-7 8-9 8-17 8-12 13-20 8-17 9-18 5-25 4-26 10-19 3-49 1h-41l-21 2h-14l-25-2-14-4-16-7-14-4-5-4-3-8 1-9 3-5 10-7 9-11 16-14 5-4 7-6 9-16 8-11 4-11 5-10 7-8 4-10 4-36 5-28 6-21 3-9 3-22 4-10 8-11 4-10 4-22 12-24 7-16 7-8 5-4 9-15 11-14 7-8 11-7h2l1-3 9-6 16-6 8-7 5-5 8-3 57-1 7-3 1-2v-10l-6-13-3-15-7-25v-8l4-7 8-4 19-4zm-1 6-24 3-6 4-3 5v7l6 17 4 18 3 13 2 6v9l-1 4-5 2-6 1-55 1-8 4-9 9-8 4-12 5-6 4-7 6-11 7-10 13-8 11-7 11-9 9-8 16-7 16-6 12-3 14-4 14-12 20-5 29-6 23-7 34-4 33-5 12-7 8-4 8-5 13-11 16-6 10-9 8-5 5-14 11-9 11-10 8-2 4v9l3 5 4 3 20 6 16 7 16 3 25 1 28-2h47l43-1 15-3 22-9 34-6 14-5 15-8 20-7 5-5 6-7 20-11 6-5v-2h2l7-8 8-8 11-14 12-12 5-8 6-11 6-9 7-18 9-10 4-5 7-23 6-14 3-15 3-22 1-14v-49l-2-20-4-21-11-23-6-9-9-7-10-14-13-12-10-5-20-8-8-4-4-4-2-6-1-7-1-48-2-13-4-5-5-5-6-7-3-2z" fill="#C8E5B7"/>
<path transform="translate(151,363)" d="m0 0h8l6 3 4 5 6 16 3 18 5 14v16l-2-1-1-11-5-12-3-8-3-19-4-11-5-5h-11l-10 9-6 7-8 12-9 10-8 11-5 5-7 8-10 19-8 11-8 16-12 16-4 11-5 13-7 12-4 16-3 14-4 8-6 10-3 11-3 37v45l2 28 2 10 4 9 8 13 6 21 12 25 5 12 9 10 6 8 6 11 7 7 9 12 10 9 6 8 17 16 12 7 12 12 3 2v2l6 2 10 6 8 4 23 6 20 2 16 1h14l7-1h10l-3 2-9 2h-32l-17-1-30-6-8-4-11-8-13-7-8-10-16-9-17-17-7-8-9-9-7-9-8-10-6-12-5-5-7-6-8-16-11-21-5-22-4-8-8-11-3-11-4-42v-33l2-16 2-29 3-12 7-11 4-8 2-10 3-16 13-26 5-13 6-9 7-8 7-16 11-16 9-17 5-4 6-5 8-12 7-7 7-11 19-19z" fill="#A4D692"/>
<path transform="translate(508,27)" d="m0 0h14l13 2 16 3 29 1 12 3 6 3 10 7 16 4 17 4 8 5 9 9 10 6 5 5 9 8 9 6 10 10 6 5 10 14 10 8 9 12 7 6 5 8 5 11 7 8 6 9 7 14 7 6 2 4 1 15-2-3-4-12-9-11-1-4h-2l-6-12-10-10-8-17-10-10-9-12-10-9-9-12-8-7-9-9-11-7-10-10-11-7-12-10-11-4-24-5-10-6-8-5-8-3-9-1-27-1-14-2h-31l-19 2-45 1-11 2-7 4-7 6-10 3-14 2-16 6-14 9-11 6-9 9-15 11-5 5-4 5-9 16-3 3-5 2-7 5 2-5 10-10 11-20 10-8 8-6 14-12 24-15 20-7 16-3 10-6 10-5 6-1 42-1 23-3z" fill="#A4D691"/>
<path transform="translate(771,488)" d="m0 0h64l-1 2-60 1-8 3-11 11-20 9-10 8-10 6-7 10-8 11-4 5-7 11-9 10-6 11-7 19-8 15-6 25-5 10-7 11-3 12-8 50-7 29-5 29-4 10-9 11-8 20-6 8-7 11-6 8-7 7-8 7-12 9-11 12-7 4-2 4v7l4 5 9 3 12 3 15 7 13 3 10 1h31l-4 2-10 2-25-1-16-3-19-8-17-5-6-5-1-3v-9l4-6 10-8 9-11 13-10 5-5 9-8 8-14 8-11 7-18 7-9 5-8 2-6 4-33 9-43 5-19 4-24 12-20 4-14 3-14 8-16 9-21 6-9 8-8 10-16 8-10 7-9 14-9 7-6 9-4 10-4 10-9 5-4z" fill="#A9D68C"/>
<path transform="translate(151,368)" d="m0 0h7l5 3 4 8 2 7 3 21 7 14 1 5v8l-3 11h-1v-22l-8-14-2-8-2-18-3-8-4-3-7 1-11 9-8 9-6 9-11 13-7 9-8 8-8 16-8 11-6 10-8 16-7 7-5 10-4 15-9 16-4 14-3 14-11 22-3 16-2 33v34l1 22 2 17 5 12 7 11 5 16 4 9 9 19 5 13 6 9 7 7 8 14 9 10 7 9 12 12 6 8 10 8 4 5 16 10 7 9 10 5 22 10 24 7 7 1 18 1h14l14-3 11-4 8-1-3 3-10 4h-3v2l-9 2h-30l-20-2-23-6-12-6-19-10-11-12-12-7-8-8-8-7-12-14-7-6-9-12-7-8-7-13-10-10-6-12-7-16-7-15-5-18-10-16-3-9-2-19-1-16v-45l3-37 4-13 8-13 3-11 3-16 4-9 8-16 5-15 6-9 6-7 8-16 12-18 9-17 8-7 12-16 8-9 7-11 12-11 5-4z" fill="#66C162"/>
<path transform="translate(500,33)" d="m0 0h31l14 2 27 1 13 2 11 6 9 6 15 4 14 3 9 4 11 9 12 8 10 10 11 7 19 19 8 10 11 10 9 12 8 8 8 17 11 11 8 18 7 9 2 5-1 11-2 4h-1l-1-15-6-10-4-10-4-9-4-5-7-6-9-18-11-12-7-9-12-11-7-10-13-12-5-5-13-9-9-9-12-8-11-8-13-4-21-5-10-6-9-6-6-2-9-1-28-1-20-2h-15l-24 2-47 1-11 2-6 4-8 7-6 2-20 3-13 5-14 9-10 5-10 9-7 6-12 9-6 8-7 13-8 8h-2l-2 4-6 16-5 15-4 19v20l4 9 4 3 9-1 18-10 14-6 3-1-1 3-16 8-10 7-9 4-8 1-7-3-4-8-1-4v-23l4-21 10-25 6-9 8-7 9-17 5-6 12-9 10-8 9-8 13-7 11-7 14-5 19-3 8-4 8-7 6-2 8-1 45-1z" fill="#66C162"/>
<path transform="translate(775,491)" d="m0 0h60l3 1 3 5v15l-6 12-2-1 3-7 2-5v-12l-4-4-3-1h-56l-8 4-8 9-8 4-10 4-13 10-11 6-3 1-2 4-8 12-9 12-7 11-9 10-5 12-5 15-7 12-5 19-4 13-7 11-4 8-3 16-6 44-4 16-5 18-4 23-4 10-8 9-5 11-5 13-9 11-6 10-9 10-8 7-15 11-7 8-7 7-1 2v6l3 3 5 2 15 3 16 8 12 3 9 1h16l20-4 4 1-6 1v2l-17 3h-18l-14-2-13-4-13-6-19-5-4-5v-8l5-6 8-7 8-9 11-8 16-15 9-15 6-7 5-12 4-10 10-13 3-8 5-29 8-34 8-51 4-10 9-14 8-30 8-15 7-20 7-10 8-9 8-13 9-11 6-9 18-12 8-6 18-8 11-11z" fill="#66C162"/>
<path transform="translate(151,363)" d="m0 0h8l6 3 4 5 6 16 3 18 5 14v16l-2-1-1-11-5-12-3-8-3-19-4-11-5-5h-11l-10 9-6 7-8 12-9 10-8 11-5 5-7 8-10 19-8 11-8 16-12 16-4 11-5 13-7 12-4 16-3 14-4 8-6 10-3 11-3 37v45l2 28 2 10 4 9 8 13 2 6v5l-2-4-4-10-7-10-4-11-2-17-2-30v-24l4-49 4-13 8-12 3-11 3-17 12-24 4-14-2 1 2-6 6-9 7-8 7-16 11-16 9-17 5-4 6-5 8-12 7-7 7-11 19-19z" fill="#A6D68F"/>
<path transform="translate(633,691)" d="m0 0h1l-1 10-5 27-6 25-5 32-4 10-9 11-8 20-11 15-6 10-8 8-8 7-9 7-9 11-8 7-4 2-2 4v7l4 5 9 3 12 3 15 7 13 3 10 1h31l-4 2-10 2-25-1-16-3-19-8-17-5-6-5-1-3v-9l4-6 10-8 9-11 13-10 5-5 9-8 8-14 8-11 7-18 7-9 5-8 2-6 4-33 9-43 4-14z" fill="#A2D694"/>
<path transform="translate(34,596)" d="m0 0 4 1 2 4v90l-2 5-3 1-5-6-1-5v-83l3-6z" fill="#008F00"/>
<path transform="translate(508,27)" d="m0 0h14l13 2 22 4 16 1v1h-26l-20-3h-23l-25 3-45 1-10 2-7 4-8 6-5 2-18 3-16 6-11 7-14 8-14 13-10 7-6 5-9 16-6 8-10 8v-3l7-8 6-7 9-17 10-8 8-6 14-12 24-15 20-7 16-3 10-6 10-5 6-1 42-1 23-3z" fill="#A2D693"/>
<path transform="translate(54,493)" d="m0 0 1 2-6 18-9 16-3 13-3 15-4 8-5 7-4 13-4 49v24l3 41 3 13 6 10 5 8-1 3-3-3-10-14-3-11-4-42v-33l2-16 2-29 3-12 7-11 4-8 2-10 3-16 13-26 3-7z" fill="#A2D694"/>
<path transform="translate(437,48)" d="m0 0h26l23 1 15 2 3 1v2l-15 3-13 1h-41l-4-2 1-5z" fill="#008F00"/>
<path transform="translate(504,31)" d="m0 0h23l20 3 26 1 13 2 12 6 8 6 16 4 14 3 10 5 10 9 6 4-2 1-8-6-10-8-11-4-24-5-10-6-8-5-8-3-9-1-27-1-14-2h-31l-19 2-45 1-11 2-7 4-7 6-10 3-14 2-16 6-14 9-11 6-9 9-15 11-5 5-4 5-9 16-3 3-2-1 6-8 9-16 9-8 10-7 12-11 16-9 9-6 16-6 21-4 6-4 8-6 6-2 7-1 45-1z" fill="#B0D686"/>
<path transform="translate(813,500)" d="m0 0h9l4 4-1 5-4 3-4 1h-14l-13-1h-9l-5-2-1-4 5-4h8l4 1 15-1z" fill="#008F00"/>
<path transform="translate(771,488)" d="m0 0h64l-1 2-60 1-8 3-11 11-20 9-10 8-10 6-6 8-4 4-8 10-5 3 2-5 10-13 7-9 14-9 7-6 9-4 10-4 10-9 5-4z" fill="#A2D694"/>
<path transform="translate(151,363)" d="m0 0h8l6 3 4 5 6 16 3 18 5 14v16l-2-1-1-11-5-12-3-8-3-19-4-11-5-5h-11l-10 9-6 7-5 7-7 4 2-5 6-9 8-7 9-9z" fill="#A2D694"/>
<path transform="translate(559,47)" d="m0 0h8l8 3 2 2-1 5-3 1h-20l-18-2-8-2v-2l9-2 14-1z" fill="#008F00"/>
<path transform="translate(66,479)" d="m0 0v3l-7 8-4 9-5 15-6 11-4 9-5 24-4 8-6 10-3 11-3 37v45l2 28 2 10 4 9 8 13 2 6v5l-2-4-4-10-7-10-4-11-2-17-2-30v-24l4-49 4-13 8-12 3-11 3-17 12-24 5-15 6-9z" fill="#B0D686"/>
<path transform="translate(290,131)" d="m0 0 1 2-9 20-4 13-3 19v17l3 13v4h-2l-3-8v-4h-2v-26l3-20 4-11 9-17z" fill="#A2D694"/>
<path transform="translate(597,904)" d="m0 0h9l10 2 2 4-4 4-8 3-11-1-6-3-2-5 5-3z" fill="#008F00"/>
<path transform="translate(582,843)" d="m0 0 1 2-6 8-16 15-7 5-9 11-8 7-3-1 12-14 4-5 13-10 5-5 9-8z" fill="#A4D692"/>
<path transform="translate(421)" d="m0 0h50l-1 3-2 1-24 1h-16l-7-3z" fill="#F0F8EA"/>
<path transform="translate(324,87)" d="m0 0 2 1-6 7-5 4-9 16-6 8-10 8v-3l7-8 6-7 9-17 10-8z" fill="#A5D690"/>
<path transform="translate(146,389)" d="m0 0 4 2 1 2v11l-3 3-6-1-2-3v-8l3-5z" fill="#008F00"/>
<path transform="translate(553)" d="m0 0h36l-1 3-12 2h-17l-5-2z" fill="#F0F8EA"/>
<path transform="translate(297,124)" d="m0 0 2 1-6 7-10 23-3 9-3 18-1 23-2-3v-17l4-24 5-12 7-16 1-4zm-9 7 2 1-2 1z" fill="#B0D686"/>
<path transform="translate(771,488)" d="m0 0h64l-1 2-60 1-8 2v-3z" fill="#9ED698"/>
<path transform="translate(707,536)" d="m0 0 1 2-8 11-4 5-7 11-9 10-5 8-1-2 6-9 8-9-5 4-7 6 2-4 8-8 5-8 8-6z" fill="#ABD68A"/>
<path transform="translate(72,465)" d="m0 0h1v6l-5 8-7 6-5 8-4 2 2-6 6-9 7-8 3-6z" fill="#A4D692"/>
<path transform="translate(653,682)" d="m0 0 3 1 1 4v8l-3 8h-2l-2-4v-12z" fill="#008F00"/>
<path transform="translate(37,740)" d="m0 0 2 4 5 12 9 19 5 12 9 10 3 3-1 2-10-9-8-16-12-26-2-6z" fill="#B0D686"/>
<path transform="translate(70,499)" d="m0 0 4 2 1 8-3 5-4-1-2-3 1-7z" fill="#008F00"/>
<path transform="translate(585,926)" d="m0 0h40l-4 2-10 2-25-1z" fill="#A0D696"/>
<path transform="translate(344,70)" d="m0 0 3 1-6 7-8 7-8 6-2-1 2-4 11-9z" fill="#A2D693"/>
<path transform="translate(560,887)" d="m0 0h7l1 1v5l-3 2h-8l-1-4z" fill="#008F00"/>
<path transform="translate(306,140)" d="m0 0 4 1v7l-5 1-2-5z" fill="#008F00"/>
<path transform="translate(424,34)" d="m0 0h28v1l-18 1-13 2 1-2h2z" fill="#9ED698"/>
<path transform="translate(208,889)" d="m0 0 7 1 5 3-1 2-8-1-3-2z" fill="#008F00"/>
<path transform="translate(297,124)" d="m0 0 2 1-6 7-6 14-2-1 5-12 1-4zm-9 7 2 1-2 1z" fill="#ACD689"/>
<path transform="translate(355,178)" d="m0 0 4 1-10 6-9 4 1-3z" fill="#6FC15D"/>
<path transform="translate(686,908)" d="m0 0 7 1 1 3-9 1-1-4z" fill="#48B02E"/>
<path transform="translate(358,85)" d="m0 0h5l1 3-2 3h-6l-1-2z" fill="#008F00"/>
<path transform="translate(52,726)" d="m0 0 3 1 1 6-1 2h-3l-1-2v-6z" fill="#008F00"/>
<path transform="translate(635,677)" d="m0 0h1v8l-1 6-3 1 1-10z" fill="#A1D695"/>
<path transform="translate(714,524)" d="m0 0 2 1-3 3v3l-3 2h-2l-3 2 2-4 4-5z" fill="#A9D68D"/>
<path transform="translate(304,115)" d="m0 0v3l-5 6-4 3-2-1zm-12 12m-2 1 2 1-3 2z" fill="#9ED698"/>
<path transform="translate(482,31)" d="m0 0h8l-1 3h-10z" fill="#A1D694"/>
</svg>
